<?xml version="1.0"?>
<svg viewBox="0 0 4000 4000" xmlns="http://www.w3.org/2000/svg" xmlns:svg="http://www.w3.org/2000/svg" version="1.1">
 <!-- Generator: Adobe Illustrator 29.1.0, SVG Export Plug-In . SVG Version: 2.1.0 Build 142)  -->
 <defs>
  <style>.st0 {
        fill: #33a162;
      }</style>
  <style class="darkreader darkreader--sync"/>
 </defs>
 <g class="layer">
  <title>Layer 1</title>
  <g id="svg_9" transform="translate(5 0) translate(0 -5) translate(69.9259 3920.7) matrix(2.08736 0 0 2.03276 -2249.65 -5237.93)">
   <title>r</title>
   <path class="st0" d="m2454.75,1270.69l4.61,-481.77c0.13,-13.77 -7.69,-26.39 -20.08,-32.4l-103.71,-50.3c-23.12,-11.21 -50.33,-10.06 -72.41,3.08l-220.73,131.28c-8.41,5 -13.57,14.07 -13.57,23.85l0,74.4c0,8.57 4.81,16.41 12.44,20.3l66.72,33.99c14.24,7.25 31.29,6.25 44.58,-2.63l117.46,-75.64c12.21,-7.86 28.27,0.9 28.27,15.42l0,256.37c0,7.69 -8.14,12.65 -14.98,9.12l-95.7,-49.47s-195.75,-104.14 -450.32,36.64l-353.89,209.25s-108.96,58.82 -108.96,181.29c5.79,96.43 54.96,137.89 135.96,188.04c46.63,28.09 109.63,64.37 154.09,89.75c80.64,46.04 170.39,74.1 262.97,81.27c70.94,5.49 154.05,0.43 239.61,-29.27c93.54,-32.79 158.14,-76.18 201.54,-104.14c43.39,-28.93 313.39,-191.89 313.39,-191.89c0,0 73.29,-45.32 81,-142.71c0.96,-81 -58.82,-126.64 -208.29,-193.82l0,-0.01zm-67.07,253.82s-286.71,184.18 -377.36,223.39c-84.86,36.64 -207,47.25 -329.46,-28.93c-124.39,-72.32 -159.11,-101.25 -159.11,-101.25c0,0 -85.82,-70.71 27,-149.14l274.82,-164.89s137.89,-102.21 324,-11.57c146.57,82.93 240.11,133.07 240.11,133.07c0,0 65.57,41.46 0,99.32z" id="svg_1"/>
   <g id="svg_8" transform="translate(31.235 0) translate(0 -1.86) translate(0 -1.86) translate(0 -1.86) translate(0 -1.86) translate(0 -1.86) translate(0 -1.86) translate(0 -1.86) translate(0 -1.86) translate(0 -1.86) translate(0 -1.86) translate(0 -1.86) translate(0 -1.86) translate(0 -1.86) translate(0 -1.86) translate(0 -1.86) translate(0 -1.86) translate(0 -1.86) translate(0 -1.86) translate(0 -1.86) translate(0 -1.86) translate(0 -1.86) translate(0 -1.86) translate(0 -1.86) translate(0 -1.86) translate(0 -1.86) translate(0 -1.86) translate(0 -1.86) translate(0 -1.86) translate(0 -1.86) translate(0 -1.86) translate(0 -1.86) translate(0 -1.86) translate(0 -1.86) translate(0 -1.86) translate(0 -1.86) translate(0 -1.86) translate(0 -1.86) translate(0 -1.86) translate(0 -1.86) translate(0 -1.86) translate(0 -1.86) translate(0 -1.86) translate(0 -1.86) translate(0 -1.86) translate(0 -1.86) translate(0 -1.86) translate(0 -1.86) translate(0 -1.86) translate(0 -1.86) translate(0 -1.86) translate(0 -1.86) translate(0 -1.86) translate(0 -1.86) translate(0 -1.86) translate(0 -1.86) translate(0 -1.86) translate(0 -1.86) translate(0 -1.86) translate(0 -1.86) translate(0 -1.86) translate(0 -1.86) translate(0 -1.86) translate(0 -1.86) translate(0 -1.86) translate(0 -1.86) translate(0 -1.86) translate(0 -1.86) translate(0 -1.86) translate(0 -1.86) translate(0 -1.86) translate(0 -1.86) translate(0 -1.86) translate(0 -1.86) translate(0 -1.86) translate(0 -1.86) translate(0 -1.86) translate(0 -1.86) translate(0 -1.86) translate(0 -1.86) translate(0 -1.86) translate(0 -1.86) translate(0 -1.86) translate(0 -1.86) translate(0 -1.86) translate(0 -1.86) translate(0 -1.86) translate(0 -1.86) translate(0 -1.86) translate(0 -1.86) translate(0 -1.86) translate(0 -1.86) translate(0 -1.86) translate(0 -1.86) translate(0 -1.86) translate(0 -1.86) translate(0 -1.86) translate(0 -1.86) translate(0 -1.86) translate(0 -1.86) translate(0 -1.86) translate(0 -1.86) translate(0 -1.86) translate(0 -1.86) translate(0 -1.86) translate(0 -1.86) translate(0 -1.86) translate(0 -1.86) translate(0 -1.86) translate(0 -1.86) translate(0 -1.86) translate(0 -1.86) translate(0 -1.86) translate(0 -1.86) translate(0 -1.86) translate(0 -1.86) translate(0 -1.86) translate(0 -1.86) translate(0 -1.86) translate(0 -1.86) translate(0 -1.86) translate(0 -1.86) translate(0 -1.86) translate(0 -1.86) translate(0 -1.86) translate(0 -1.86) translate(0 -1.86) translate(0 -1.86) translate(0 -1.86) translate(0 -1.86) translate(0 -1.86) translate(0 -1.86) translate(0 -1.86) translate(0 -1.86) translate(0 -1.86) translate(0 -1.86)">
    <path class="st0" d="m1292.27,2618.97s58.81,-32.5 50.27,-96.12c-1.74,-12.99 -6.32,-25.41 -12.78,-36.81c-20.71,-36.49 -46.11,-49.45 -79,-56.54c-18.01,-3.88 -36.41,-5.64 -54.83,-5.64l-143.12,0l0,397.28l183.16,0c33.01,0 65.03,-12.35 88.77,-35.29c17.47,-16.89 32.11,-40.92 33.11,-74.31c-1.29,-63.64 -65.57,-92.57 -65.57,-92.57l-0.01,0zm-164.57,-114.44c0,-5.31 4.31,-9.62 9.62,-9.62l80.29,0c25.26,0 45.73,20.47 45.73,45.73c0,26.94 -21.84,48.77 -48.77,48.77l-78.74,0c-4.49,0 -8.14,-3.64 -8.14,-8.14l0,-76.74l0.01,0zm145.84,200.41c0,26.94 -21.84,48.77 -48.77,48.77l-88.94,0c-4.49,0 -8.14,-3.64 -8.14,-8.14l0,-80.34c0,-5.31 4.31,-9.62 9.62,-9.62l90.49,0c25.26,0 45.73,20.47 45.73,45.73l0,3.6l0.01,0z" id="svg_2"/>
    <path class="st0" d="m1743.7,2423.87l-70.43,0c-6.8,0 -13.04,3.79 -16.17,9.83l-79.49,153.27c-3,5.78 -11.22,5.92 -14.41,0.24l-86.34,-153.9c-3.27,-5.83 -9.43,-9.44 -16.12,-9.44l-67.91,0c-6.04,0 -9.75,6.61 -6.61,11.76l143.26,235.09l0,141.32c0,5.03 4.08,9.1 9.1,9.1l61.95,0c5.49,0 9.95,-4.45 9.95,-9.95l0,-140.48l141.02,-233.02c3.68,-6.07 -0.7,-13.83 -7.8,-13.83l0,0.01z" id="svg_3"/>
    <path class="st0" d="m2016.81,2431.59c-22.44,-5.27 -45.44,-7.72 -68.49,-7.72l-121.02,0c-6.6,0 -11.96,5.35 -11.96,11.96l0,371.55c0,7.61 6.17,13.78 13.78,13.78l150.79,0s178.07,9 189.64,-194.14c0.56,-95.66 -45.18,-170.15 -152.75,-195.42l0.01,-0.01zm-50.4,316.92l-59.76,0c-3.92,0 -7.1,-3.18 -7.1,-7.1l0,-234.99c0,-5.2 4.18,-9.43 9.39,-9.52c134.51,-2.38 173.9,52.51 177.04,116.61c1.93,146.57 -119.57,135 -119.57,135z" id="svg_4"/>
    <path class="st0" d="m2508.02,2423.87l-240.9,0c-6.48,0 -11.74,5.26 -11.74,11.74l0,376.38c0,5.1 4.13,9.23 9.23,9.23l242.58,0c4.72,0 8.55,-3.83 8.55,-8.55l0,-49.26c0,-5.03 -4.08,-9.11 -9.11,-9.11l-164.24,0c-6.51,0 -11.79,-5.28 -11.79,-11.79l0,-82.06l154.35,0c4.76,0 8.62,-3.86 8.62,-8.62l0,-52.25c0,-4.76 -3.86,-8.62 -8.62,-8.62l-154.35,0l0,-81.27c0,-7.11 5.76,-12.87 12.87,-12.87l160.75,0c6.37,0 11.53,-5.16 11.53,-11.53l0,-53.72c0,-4.26 -3.45,-7.71 -7.71,-7.71l-0.02,0.01z" id="svg_5"/>
    <path class="st0" d="m2876.25,2423.87l-288.39,0c-4.68,0 -8.48,3.8 -8.48,8.48l0,59.53c0,4.68 3.8,8.48 8.48,8.48l91.76,0c3.93,0 7.11,3.19 7.11,7.11l0,304.02c0,5.33 4.32,9.65 9.65,9.65l64.27,0c5.33,0 9.65,-4.32 9.65,-9.65l0,-302.32c0,-4.87 3.94,-8.81 8.81,-8.81l97.13,0c4.68,0 8.48,-3.8 8.48,-8.48l0,-59.53c0,-4.68 -3.8,-8.48 -8.48,-8.48l0.01,0z" id="svg_6"/>
   </g>
  </g>
 </g>
</svg>