<?xml version="1.0"?>
<svg viewBox="0 0 4000 4000" xmlns="http://www.w3.org/2000/svg" xmlns:svg="http://www.w3.org/2000/svg" version="1.1">
 <!-- Generator: Adobe Illustrator 29.1.0, SVG Export Plug-In . SVG Version: 2.1.0 Build 142)  -->
 <defs>
  <style>.st0 {
        fill: #33a162;
      }</style>
  <style class="darkreader darkreader--sync"/>
 </defs>
 <g class="layer">
  <title>Layer 1</title>
  <path class="st0" d="m3392.42,1863.46l13.21,-1435.4c0.37,-41.03 -22.03,-78.63 -57.53,-96.53l-297.14,-149.87c-66.24,-33.4 -144.2,-29.97 -207.46,9.18l-632.42,391.14c-24.1,14.9 -38.88,41.92 -38.88,71.06l0,221.67c0,25.53 13.78,48.89 35.64,60.48l191.16,101.27c40.8,21.6 89.65,18.62 127.73,-7.84l336.54,-225.36c34.98,-23.42 81,2.68 81,45.94l0,763.84c0,22.91 -23.32,37.69 -42.92,27.17l-274.19,-147.39s-560.85,-310.28 -1290.23,109.17l-1013.94,623.45s-312.19,175.25 -312.19,540.14c16.59,287.31 157.47,410.83 389.54,560.25c133.6,83.69 314.11,191.79 441.49,267.4c231.04,137.17 488.19,220.78 753.45,242.14c203.25,16.36 441.37,1.28 686.52,-87.21c268.01,-97.7 453.09,-226.97 577.44,-310.28c124.32,-86.2 897.91,-571.72 897.91,-571.72c0,0 209.99,-135.03 232.08,-425.19c2.75,-241.33 -168.53,-377.32 -596.78,-577.47l0,-0.03zm-192.16,756.24s-821.46,548.75 -1081.19,665.58c-243.14,109.17 -593.08,140.78 -943.95,-86.2c-356.39,-215.47 -455.87,-301.67 -455.87,-301.67c0,0 -245.89,-210.68 77.36,-444.35l787.4,-491.28s395.07,-304.53 928.31,-34.47c419.94,247.08 687.95,396.47 687.95,396.47c0,0 187.87,123.53 0,295.92z" id="svg_1"/>
 </g>
</svg>